<svg xmlns="http://www.w3.org/2000/svg" viewBox="0 0 500 300">
<rect x="30" y="55" width="440" height="190" rx="12" fill="#5b3a26"/>
<rect x="40" y="75" width="420" height="70" fill="#7a4f32"/>
<rect x="40" y="160" width="420" height="65" fill="#7a4f32"/>
<g>
<rect x="55" y="85" width="22" height="50" fill="#31513f"/><rect x="82" y="78" width="28" height="57" fill="#9c7249"/>
<rect x="115" y="88" width="20" height="47" fill="#6b4f7c"/><rect x="140" y="80" width="30" height="55" fill="#355d70"/>
<rect x="176" y="75" width="22" height="60" fill="#b48b52"/><rect x="204" y="86" width="26" height="49" fill="#7b3e3e"/>
<rect x="238" y="78" width="28" height="57" fill="#496047"/><rect x="272" y="90" width="18" height="45" fill="#c1a06e"/>
<rect x="300" y="82" width="32" height="53" fill="#56436d"/><rect x="337" y="76" width="22" height="59" fill="#6d5c45"/>
<rect x="365" y="89" width="26" height="46" fill="#274c42"/><rect x="397" y="79" width="35" height="56" fill="#9a6144"/>
</g>
<g transform="translate(0,85)">
<rect x="55" y="85" width="22" height="50" fill="#5d744e"/><rect x="82" y="78" width="28" height="57" fill="#a98d5c"/>
<rect x="115" y="88" width="20" height="47" fill="#664a6d"/><rect x="140" y="80" width="30" height="55" fill="#45667a"/>
<rect x="176" y="75" width="22" height="60" fill="#b79158"/><rect x="204" y="86" width="26" height="49" fill="#814c4c"/>
<rect x="238" y="78" width="28" height="57" fill="#4d654a"/><rect x="272" y="90" width="18" height="45" fill="#c6aa77"/>
<rect x="300" y="82" width="32" height="53" fill="#5f4a70"/><rect x="337" y="76" width="22" height="59" fill="#72634d"/>
<rect x="365" y="89" width="26" height="46" fill="#31594e"/><rect x="397" y="79" width="35" height="56" fill="#a16d4c"/>
</g></svg>